<svg enable-background="new 0 0 512 512" height="512" viewBox="0 0 512 512" width="512" xmlns="http://www.w3.org/2000/svg"><g id="BULINE"><circle id="XMLID_189_" cx="256" cy="256" fill="#00baef" r="256"/></g><g id="Icons"><g id="XMLID_809_"><path id="XMLID_938_" d="m512 256c0 2.35-.03 4.69-.09 7.03-.14 5.11-.43 10.19-.87 15.23-.48 5.59-1.14 11.13-1.97 16.62-.75 4.88-1.63 9.71-2.65 14.5-3.79 17.89-9.45 35.09-16.77 51.38-6.56 14.6-14.44 28.48-23.51 41.47-3.22 4.63-6.59 9.15-10.12 13.55-5.71 7.15-11.8 13.98-18.24 20.47-6.06 6.11-12.42 11.92-19.07 17.4-42.09 34.68-95.45 56.19-153.76 58.19-2.97.11-5.96.16-8.95.16-4.07 0-8.12-.1-12.15-.29-64.65-3.02-123.03-30.02-166.45-72.29-6.53-6.38-12.74-13.1-18.56-20.13-3.41-4.1-6.69-8.31-9.83-12.63-8.83-12.1-16.62-25.02-23.23-38.6-9.71-19.89-16.91-41.22-21.2-63.58-.64-3.39-1.23-6.8-1.74-10.23-.79-5.28-1.42-10.61-1.88-15.99-.44-5.04-.73-10.12-.87-15.23-.06-2.34-.09-4.68-.09-7.03 0-16.49 1.56-32.62 4.54-48.25 1.36-7.14 3.02-14.18 4.97-21.1 3.59-12.8 8.16-25.2 13.62-37.1 1.84-4.05 3.8-8.04 5.86-11.97 11.12-21.29 25.15-40.82 41.57-58.07h370.88c7.68 8.07 14.84 16.64 21.42 25.65 1.74 2.38 3.44 4.8 5.11 7.25 5.47 8.07 10.5 16.47 15.04 25.17 2.06 3.93 4.02 7.92 5.86 11.97 5.46 11.9 10.03 24.3 13.62 37.1 1.95 6.92 3.61 13.96 4.97 21.1 2.98 15.63 4.54 31.76 4.54 48.25z" fill="#f8d572"/><path id="XMLID_857_" d="m180.55 79.51-13.36 24.9-17.21 32.11-.57 1.06-6.43 11.97-1.98 3.69v.01l-17.91 33.4-11.32 21.1-29.65 55.28-8.17 15.23-3.08 5.74-29.56 55.11-15.53 28.95c-9.71-19.89-16.91-41.22-21.2-63.58-.64-3.39-1.23-6.8-1.74-10.23-.79-5.28-1.42-10.61-1.88-15.99-.44-5.04-.73-10.12-.87-15.23-.06-2.34-.09-4.68-.09-7.03 0-16.49 1.56-32.62 4.54-48.25 1.36-7.14 3.02-14.18 4.97-21.1 3.59-12.8 8.16-25.2 13.62-37.1 1.84-4.05 3.8-8.04 5.86-11.97 11.12-21.29 25.15-40.82 41.57-58.07z" fill="#4ace99"/><path id="XMLID_839_" d="m512 256c0 2.35-.03 4.69-.09 7.03-.14 5.11-.43 10.19-.87 15.23-.48 5.59-1.14 11.13-1.97 16.62-.75 4.88-1.63 9.71-2.65 14.5-3.79 17.89-9.45 35.09-16.77 51.38l-15.76-29.37-28.5-53.13-1.06-1.98-7.11-13.25-29.65-55.28-11.32-21.1-17.91-33.4v-.01l-1.98-3.69-6.43-11.97-.57-1.07-11.95-22.29-5.26-9.81-13.36-24.9h102.65c7.68 8.07 14.84 16.64 21.42 25.65 1.74 2.38 3.44 4.8 5.11 7.25 5.47 8.07 10.5 16.47 15.04 25.17 2.06 3.93 4.02 7.92 5.86 11.97 5.46 11.9 10.03 24.3 13.62 37.1 1.95 6.92 3.61 13.96 4.97 21.1 2.98 15.63 4.54 31.76 4.54 48.25z" fill="#4ace99"/><path id="XMLID_886_" d="m512 256c0 2.35-.03 4.69-.09 7.03h-511.82c-.06-2.34-.09-4.68-.09-7.03 0-16.49 1.56-32.62 4.54-48.25 1.36-7.14 3.02-14.18 4.97-21.1 3.59-12.8 8.16-25.2 13.62-37.1h465.74c5.46 11.9 10.03 24.3 13.62 37.1 1.95 6.92 3.61 13.96 4.97 21.1 2.98 15.63 4.54 31.76 4.54 48.25z" fill="#32314b"/><path id="XMLID_919_" d="m466.14 402.23c-3.22 4.63-6.59 9.15-10.12 13.55-5.71 7.15-11.8 13.98-18.24 20.47-6.06 6.11-12.42 11.92-19.07 17.4-42.09 34.68-95.45 56.19-153.76 58.19-2.97.11-5.96.16-8.95.16-4.07 0-8.12-.1-12.15-.29-64.65-3.02-123.03-30.02-166.45-72.29-6.53-6.38-12.74-13.1-18.56-20.13-3.41-4.1-6.69-8.31-9.83-12.63l64.23-143.63 49.1-109.78.01-.01 1.65-3.69 5.35-11.97 14.84-33.17.28-.65 10.85-24.25h121.32l11.53 24.9 4.54 9.81 10.83 23.36 5.55 11.97 1.71 3.69v.01l50.85 109.78h.01l7.05 15.23z" fill="#32314b"/><path id="XMLID_893_" d="m418.71 453.65c-42.09 34.68-95.45 56.19-153.76 58.19-2.97.11-5.96.16-8.95.16-4.07 0-8.12-.1-12.15-.29-64.65-3.02-123.03-30.02-166.45-72.29-6.53-6.38-12.74-13.1-18.56-20.13-3.41-4.1-6.69-8.31-9.83-12.63l64.23-143.63 49.1-109.78.01-.01 1.65-3.69 5.35-11.97 14.84-33.17.28-.65 10.85-24.25h91.36l-11.13 24.9-4.39 9.81-6.21 13.89-4.25 9.47-5.34 11.97-1.65 3.69-.01.01-7.97 17.82-41.12 91.96-23.2 51.87c-25.21 56.38 7.06 119.03 62.44 134.92 6.72 1.93 13.76 3.17 21.1 3.61 2.1.15 4.25.22 6.4.22z" fill="#27273d"/><g fill="#fff"><path id="XMLID_873_" d="m153.73 242.48-7.96 20.55-68.37 176.39c-6.53-6.38-12.74-13.1-18.56-20.13l68.8-156.26 9.05-20.55z"/><path id="XMLID_835_" d="m165.851 211.219-6.687 17.247h-16.302l7.591-17.247z"/><path id="XMLID_834_" d="m177.958 179.965-6.676 17.236h-14.651l7.59-17.236z"/><path id="XMLID_833_" d="m216.896 79.506-33.507 86.441h-13l38.065-86.441z"/><path id="XMLID_832_" d="m346.024 165.947h-13l-33.507-86.441h8.441z"/><path id="XMLID_831_" d="m359.782 197.201h-14.651l-6.677-17.236h13.738z"/><path id="XMLID_830_" d="m373.55 228.466h-16.302l-6.687-17.247h15.389z"/><path id="XMLID_875_" d="m456.02 415.78c-5.71 7.15-11.8 13.98-18.24 20.47l-67.14-173.22-7.96-20.55h17.04l9.05 20.55z"/><path id="XMLID_828_" d="m243.846 79.507h21.099v30.294h-21.099z"/><path id="XMLID_827_" d="m243.846 128.035h21.099v43.036h-21.099z"/><path id="XMLID_826_" d="m243.846 195.686h21.099v55.912h-21.099z"/><path id="XMLID_824_" d="m58.251 207.751 10.384-21.099h55.911l-10.383 21.099z"/><path id="XMLID_871_" d="m53.55 186.65-10.38 21.1h-38.63c1.36-7.14 3.02-14.18 4.97-21.1z"/><path id="XMLID_821_" d="m446.714 207.751-10.384-21.099h-55.912l10.384 21.099z"/><path id="XMLID_867_" d="m507.46 207.75h-45.66l-10.39-21.1h51.08c1.95 6.92 3.61 13.96 4.97 21.1z"/><path id="XMLID_819_" d="m243.846 282.894h21.099v98.813h-21.099z"/><path id="XMLID_870_" d="m264.95 415.12v96.72c-2.97.11-5.96.16-8.95.16-4.07 0-8.12-.1-12.15-.29v-96.59z"/></g><path id="XMLID_817_" d="m139.859 112.176c0 8.26-19.601 14.949-43.78 14.949-2.785 0-5.517-.084-8.155-.264-5.338-.338-10.328-1.013-14.78-1.952-6.066-1.276-11.151-3.038-14.78-5.138-3.418-1.973-5.549-4.241-5.981-6.667-.053-.306-.084-.612-.084-.928 0-2.764 2.194-5.349 6.024-7.564.011-.011.032-.021.042-.021 3.629-2.099 8.714-3.861 14.78-5.138.517-.116 1.044-.222 1.572-.316 4.051-.781 8.492-1.34 13.208-1.635 2.637-.179 5.37-.264 8.155-.264 15.634 0 29.349 2.796 37.092 7.005 1.477.802 2.732 1.646 3.745 2.542 1.897 1.667 2.942 3.493 2.942 5.391z" fill="#3aaf7d"/><path id="XMLID_816_" d="m52.3 298.93c0 5.02-11.93 9.09-26.64 9.09-8.58 0-16.22-1.39-21.08-3.54-.64-3.39-1.23-6.8-1.74-10.23 4.66-2.65 13.14-4.41 22.82-4.41 14.71 0 26.64 4.07 26.64 9.09z" fill="#3aaf7d"/><path id="XMLID_815_" d="m467.97 112.41c-.06 1.43-.7 2.79-1.84 4.09-2.31 2.61-6.63 4.91-12.37 6.7-4.24 1.33-9.25 2.37-14.78 3.05-4.61.57-9.59.87-14.78.87-24.18 0-43.78-6.68-43.78-14.94 0-1.9 1.04-3.73 2.94-5.39 4.6-4.06 14.23-7.26 26.29-8.7 4.55-.56 9.44-.85 14.55-.85 3.43 0 6.76.14 9.97.39 1.64.13 3.25.28 4.81.48 5.53.68 10.54 1.72 14.78 3.05.75.23 1.47.48 2.17.73 2.72.97 5.06 2.07 6.93 3.27 1.74 2.38 3.44 4.8 5.11 7.25z" fill="#3aaf7d"/><path id="XMLID_862_" d="m509.07 294.88c-.75 4.88-1.63 9.71-2.65 14.5-4.21.95-9.25 1.5-14.67 1.5-14.71 0-26.64-4.07-26.64-9.09s11.93-9.09 26.64-9.09c6.61 0 12.66.83 17.32 2.18z" fill="#3aaf7d"/><path id="XMLID_865_" d="m109.25 263.03-6.61 15.23h-101.68c-.44-5.04-.73-10.12-.87-15.23z" fill="#f8d572"/><path id="XMLID_866_" d="m511.91 263.03c-.14 5.11-.43 10.19-.87 15.23h-102.34l-7.05-15.23z" fill="#f8d572"/><path id="XMLID_864_" d="m488.87 149.55h-138.07l-7.26-11.97h139.47c2.06 3.93 4.02 7.92 5.86 11.97z" fill="#f8d572"/><path id="XMLID_863_" d="m163.66 137.58-5.19 11.97h-135.34c1.84-4.05 3.8-8.04 5.86-11.97z" fill="#f8d572"/></g></g></svg>