<svg xmlns="http://www.w3.org/2000/svg" xmlns:xlink="http://www.w3.org/1999/xlink" viewBox="0 0 200 250" version="1.1" x="0px" y="0px"><title>problem-solving</title><desc>Created with Sketch.</desc><g stroke="none" stroke-width="1" fill="none" fill-rule="evenodd"><g transform="translate(42.000000, 38.499974)" fill="#000000" fill-rule="nonzero"><path d="M33.5,110.500026 C39.2989899,110.500026 44,115.201036 44,121.000026 C44,126.799016 39.2989899,131.500026 33.5,131.500026 C27.7010101,131.500026 23,126.799016 23,121.000026 C23,115.201036 27.7010101,110.500026 33.5,110.500026 Z M33.5,116.500026 C31.0147186,116.500026 29,118.514745 29,121.000026 C29,123.485307 31.0147186,125.500026 33.5,125.500026 C35.9852814,125.500026 38,123.485307 38,121.000026 C38,118.514745 35.9852814,116.500026 33.5,116.500026 Z M81.1588451,0.984816101 C82.3065373,-0.280877945 84.278011,-0.3339039 85.4920803,0.868266776 L85.4920803,0.868266776 L97.6108521,12.8682668 C98.7881801,14.0340562 98.7975339,15.9335281 97.6317445,17.110856 C96.4659551,18.288184 94.5664832,18.2975378 93.3891553,17.1317485 L93.3891553,17.1317485 L87,10.805 L87,46.3323142 C87,59.4545998 76.4686628,70.1171599 63.3968839,70.3290988 L63,70.3323142 L55,70.3323142 C45.0588745,70.3323142 37,78.3911887 37,88.3323142 L37,88.3323142 L37,103.500026 C37,105.15688 35.6568542,106.500026 34,106.500026 C32.3431458,106.500026 31,105.15688 31,103.500026 L31,103.500026 L31,88.3323142 C31,75.0774802 41.745166,64.3323142 55,64.3323142 L55,64.3323142 L63,64.3323142 C72.9411255,64.3323142 81,56.2734397 81,46.3323142 L81,46.3323142 L81,10.091 L74.7223905,17.0151991 C73.6522371,18.1953822 71.856983,18.3265398 70.6293241,17.345466 L70.4848122,17.2223944 C69.2574218,16.1094349 69.1646573,14.2122064 70.2776169,12.9848161 L70.2776169,12.9848161 Z"/><path d="M70,21.500026 C71.6568542,21.500026 73,22.8431717 73,24.500026 C73,26.1568802 71.6568542,27.500026 70,27.500026 L61,27.500026 L61,47.901026 L69,47.9013932 C70.5976809,47.9013932 71.9036609,49.1503131 71.9949073,50.7251204 L72,50.9013932 C72,52.5582474 70.6568542,53.9013932 69,53.9013932 L69,53.9013932 L47,53.9013932 C45.3431458,53.9013932 44,52.5582474 44,50.9013932 C44,49.2445389 45.3431458,47.9013932 47,47.9013932 L47,47.9013932 L55,47.901026 L55,27.500026 L7.42244224,27.500026 C6.64202618,27.500026 6,28.1469997 6,28.9565477 L6,66.000026 L22.5454545,66.000026 L22.5454545,49.6997803 C22.5454545,48.042926 23.8886003,46.6997803 25.5454545,46.6997803 C27.2023088,46.6997803 28.5454545,48.042926 28.5454545,49.6997803 L28.5454545,49.6997803 L28.5454545,69.000026 C28.5454545,70.6568802 27.2023088,72.000026 25.5454545,72.000026 L25.5454545,72.000026 L6,72.000026 L6,102.043504 C6,102.853052 6.64202618,103.500026 7.42244224,103.500026 L21.6960473,103.500026 C23.3529016,103.500026 24.6960473,104.843172 24.6960473,106.500026 C24.6960473,108.15688 23.3529016,109.500026 21.6960473,109.500026 L7.42244224,109.500026 C3.31796349,109.500026 0,106.156494 0,102.043504 L0,28.9565477 C0,24.8435578 3.31796349,21.500026 7.42244224,21.500026 L70,21.500026 Z M108.57047,21.500026 C112.67778,21.500026 116,24.8424906 116,28.9565477 L116,102.043504 C116,106.157561 112.67778,109.500026 108.57047,109.500026 L47,109.500026 C45.3431458,109.500026 44,108.15688 44,106.500026 C44,104.843172 45.3431458,103.500026 47,103.500026 L55,103.500026 L55,81.6119212 C55,80.0142403 56.24892,78.7082603 57.8237272,78.6170138 L58,78.6119212 C59.6568542,78.6119212 61,79.9550669 61,81.6119212 L61,81.6119212 L61,103.500026 L82,103.500026 L82,81.500026 C82,79.9023451 83.24892,78.5963651 84.8237272,78.5051187 L85,78.500026 L100,78.500026 C101.656854,78.500026 103,79.8431717 103,81.500026 C103,83.1568802 101.656854,84.500026 100,84.500026 L100,84.500026 L88,84.500026 L88,103.500026 L108.57047,103.500026 C109.355884,103.500026 110,102.851985 110,102.043504 L110,54.500026 L99,54.500026 C97.4023191,54.500026 96.0963391,53.251106 96.0050927,51.6762988 L96,51.500026 C96,49.8431717 97.3431458,48.500026 99,48.500026 L99,48.500026 L110,48.500026 L110,28.9565477 C110,28.1480669 109.355884,27.500026 108.57047,27.500026 L95.7248322,27.500026 C94.067978,27.500026 92.7248322,26.1568802 92.7248322,24.500026 C92.7248322,22.8431717 94.067978,21.500026 95.7248322,21.500026 L108.57047,21.500026 Z" transform="translate(58.000000, 65.500026) rotate(-360.000000) translate(-58.000000, -65.500026) "/></g></g><text x="0" y="215" fill="#000000" font-size="5px" font-weight="bold" font-family="'Helvetica Neue', Helvetica, Arial-Unicode, Arial, Sans-serif">Created by  Boris</text><text x="0" y="220" fill="#000000" font-size="5px" font-weight="bold" font-family="'Helvetica Neue', Helvetica, Arial-Unicode, Arial, Sans-serif">from the Noun Project</text></svg>