{
  "accessors": [
    {
      "bufferView": 2,
      "componentType": 5126,
      "count": 5348,
      "max": [
        2.2347500324249268,
        2.000809907913208,
        1.5240750312805176
      ],
      "min": [
        -2.0142300128936768,
        -2.1695599555969238,
        -1.3324899673461914
      ],
      "type": "VEC3"
    },
    {
      "bufferView": 2,
      "byteOffset": 64176,
      "componentType": 5126,
      "count": 5348,
      "max": [
        0.9995611310005188,
        0.99899536371231079,
        0.99999922513961792
      ],
      "min": [
        -0.99963974952697754,
        -0.99999988079071045,
        -0.99999946355819702
      ],
      "type": "VEC3"
    },
    {
      "bufferView": 1,
      "componentType": 5126,
      "count": 5348,
      "max": [
        0.99162298440933228,
        0.99188399314880371
      ],
      "min": [
        0.0080960001796483994,
        0.0084440000355243683
      ],
      "type": "VEC2"
    },
    {
      "bufferView": 0,
      "componentType": 5125,
      "count": 27306,
      "max": [
        5347
      ],
      "min": [
        0
      ],
      "type": "SCALAR"
    },
    {
      "bufferView": 2,
      "byteOffset": 128352,
      "componentType": 5126,
      "count": 5155,
      "max": [
        2.2577700614929199,
        1.9817800521850586,
        1.5268800258636475
      ],
      "min": [
        -2.019582986831665,
        -2.2021200656890869,
        -1.3221800327301025
      ],
      "type": "VEC3"
    },
    {
      "bufferView": 2,
      "byteOffset": 190212,
      "componentType": 5126,
      "count": 5155,
      "max": [
        0.99989354610443115,
        0.99998378753662109,
        0.99999910593032837
      ],
      "min": [
        -0.99947237968444824,
        -0.99909979104995728,
        -0.99999988079071045
      ],
      "type": "VEC3"
    },
    {
      "bufferView": 1,
      "byteOffset": 42784,
      "componentType": 5126,
      "count": 5155,
      "max": [
        0.99165701866149902,
        0.99187201261520386
      ],
      "min": [
        0.0080819996073842049,
        0.0085249999538064003
      ],
      "type": "VEC2"
    },
    {
      "bufferView": 0,
      "byteOffset": 109224,
      "componentType": 5125,
      "count": 24375,
      "max": [
        5154
      ],
      "min": [
        0
      ],
      "type": "SCALAR"
    },
    {
      "bufferView": 2,
      "byteOffset": 252072,
      "componentType": 5126,
      "count": 6319,
      "max": [
        2.2427799701690674,
        1.9524300098419189,
        1.5278500318527222
      ],
      "min": [
        -1.7885349988937378,
        -2.2266099452972412,
        -1.3324899673461914
      ],
      "type": "VEC3"
    },
    {
      "bufferView": 2,
      "byteOffset": 327900,
      "componentType": 5126,
      "count": 6319,
      "max": [
        0.9995611310005188,
        0.99999821186065674,
        0.99999874830245972
      ],
      "min": [
        -0.99947237968444824,
        -0.99906736612319946,
        -0.99999845027923584
      ],
      "type": "VEC3"
    },
    {
      "bufferView": 1,
      "byteOffset": 84024,
      "componentType": 5126,
      "count": 6319,
      "max": [
        0.99054098129272461,
        0.99192297458648682
      ],
      "min": [
        0.0080939996987581253,
        0.0098799997940659523
      ],
      "type": "VEC2"
    },
    {
      "bufferView": 0,
      "byteOffset": 206724,
      "componentType": 5125,
      "count": 27567,
      "max": [
        6318
      ],
      "min": [
        0
      ],
      "type": "SCALAR"
    }
  ],
  "asset": {
    "extras": {
      "author": "alban (https://sketchfab.com/alban)",
      "license": "SKETCHFAB Editorial (https://sketchfab.com/licenses)",
      "source": "https://sketchfab.com/3d-models/doctors-office-7a675fe227214297b613b128f9474494",
      "title": "Doctor's office"
    },
    "generator": "Sketchfab-10.6.0",
    "version": "2.0"
  },
  "bufferViews": [
    {
      "buffer": 0,
      "byteLength": 316992,
      "byteOffset": 0,
      "name": "floatBufferViews",
      "target": 34963
    },
    {
      "buffer": 0,
      "byteLength": 134576,
      "byteOffset": 316992,
      "byteStride": 8,
      "name": "floatBufferViews",
      "target": 34962
    },
    {
      "buffer": 0,
      "byteLength": 403728,
      "byteOffset": 451568,
      "byteStride": 12,
      "name": "floatBufferViews",
      "target": 34962
    }
  ],
  "buffers": [
    {
      "byteLength": 855296,
      "uri": "scene.bin"
    }
  ],
  "extensionsUsed": [
    "KHR_materials_unlit"
  ],
  "images": [
    {
      "uri": "textures/material0000_baseColor.jpeg"
    },
    {
      "uri": "textures/material0001_baseColor.jpeg"
    },
    {
      "uri": "textures/material0002_baseColor.jpeg"
    }
  ],
  "materials": [
    {
      "doubleSided": false,
      "emissiveFactor": [
        0,
        0,
        0
      ],
      "extensions": {
        "KHR_materials_unlit": {}
      },
      "name": "material0000",
      "pbrMetallicRoughness": {
        "baseColorFactor": [
          1,
          1,
          1,
          1
        ],
        "baseColorTexture": {
          "index": 0,
          "texCoord": 0
        },
        "metallicFactor": 0,
        "roughnessFactor": 1
      }
    },
    {
      "doubleSided": false,
      "emissiveFactor": [
        0,
        0,
        0
      ],
      "extensions": {
        "KHR_materials_unlit": {}
      },
      "name": "material0001",
      "pbrMetallicRoughness": {
        "baseColorFactor": [
          1,
          1,
          1,
          1
        ],
        "baseColorTexture": {
          "index": 1,
          "texCoord": 0
        },
        "metallicFactor": 0,
        "roughnessFactor": 1
      }
    },
    {
      "doubleSided": false,
      "emissiveFactor": [
        0,
        0,
        0
      ],
      "extensions": {
        "KHR_materials_unlit": {}
      },
      "name": "material0002",
      "pbrMetallicRoughness": {
        "baseColorFactor": [
          1,
          1,
          1,
          1
        ],
        "baseColorTexture": {
          "index": 2,
          "texCoord": 0
        },
        "metallicFactor": 0,
        "roughnessFactor": 1
      }
    }
  ],
  "meshes": [
    {
      "primitives": [
        {
          "attributes": {
            "NORMAL": 1,
            "POSITION": 0,
            "TEXCOORD_0": 2
          },
          "indices": 3,
          "material": 0,
          "mode": 4
        }
      ]
    },
    {
      "primitives": [
        {
          "attributes": {
            "NORMAL": 5,
            "POSITION": 4,
            "TEXCOORD_0": 6
          },
          "indices": 7,
          "material": 1,
          "mode": 4
        }
      ]
    },
    {
      "primitives": [
        {
          "attributes": {
            "NORMAL": 9,
            "POSITION": 8,
            "TEXCOORD_0": 10
          },
          "indices": 11,
          "material": 2,
          "mode": 4
        }
      ]
    }
  ],
  "nodes": [
    {
      "children": [
        1
      ],
      "name": "RootNode (gltf orientation matrix)",
      "rotation": [
        -0.70710678118654746,
        -0,
        -0,
        0.70710678118654757
      ]
    },
    {
      "children": [
        2
      ],
      "matrix": [
        0.80735892766988115,
        1.0784291047086182e-05,
        -0.00090851967994473593,
        0,
        0,
        0.80730257637034697,
        0.0095828263177355488,
        0,
        0.00090858368646123955,
        -0.0095828203024388436,
        0.80730209514661055,
        0,
        -0.00010986524284817278,
        0.0011499971151351929,
        0.0014812950976192951,
        1
      ],
      "name": "RootNode (model correction matrix)"
    },
    {
      "children": [
        3,
        4,
        5
      ],
      "name": "textured.obj.cleaner.materialmerger.gles"
    },
    {
      "mesh": 0,
      "name": ""
    },
    {
      "mesh": 1,
      "name": ""
    },
    {
      "mesh": 2,
      "name": ""
    }
  ],
  "samplers": [
    {
      "magFilter": 9729,
      "minFilter": 9987,
      "wrapS": 10497,
      "wrapT": 10497
    }
  ],
  "scene": 0,
  "scenes": [
    {
      "name": "OSG_Scene",
      "nodes": [
        0
      ]
    }
  ],
  "textures": [
    {
      "sampler": 0,
      "source": 0
    },
    {
      "sampler": 0,
      "source": 1
    },
    {
      "sampler": 0,
      "source": 2
    }
  ]
}

