<?xml version="1.0" encoding="iso-8859-1"?>
<!-- Generator: Adobe Illustrator 19.0.0, SVG Export Plug-In . SVG Version: 6.00 Build 0)  -->
<svg version="1.1" id="Layer_1" xmlns="http://www.w3.org/2000/svg" xmlns:xlink="http://www.w3.org/1999/xlink" x="0px" y="0px"
	 viewBox="0 0 392.533 392.533" style="enable-background:new 0 0 392.533 392.533;" xml:space="preserve">
<path style="fill:#56ACE0;" d="M326.363,163.491c-3.168-12.671-8.21-24.76-14.933-36.008c-1.939-3.232-2.069-7.24-0.323-10.667
	l18.101-34.521l-18.941-18.941l-34.521,18.101c-3.426,1.745-7.434,1.616-10.667-0.323c-11.184-6.723-23.337-11.766-36.008-14.933
	c-3.685-0.905-6.659-3.685-7.758-7.37l-11.572-37.107h-26.764l-11.572,37.172c-1.164,3.62-4.073,6.4-7.758,7.37
	c-12.671,3.168-24.76,8.21-36.008,14.933c-3.232,1.939-7.24,2.069-10.667,0.323L82.452,63.418L63.511,82.36l18.101,34.521
	c1.745,3.426,1.616,7.434-0.323,10.667c-6.723,11.184-11.766,23.337-14.933,36.008c-0.905,3.685-3.685,6.659-7.37,7.758
	l-37.172,11.572v26.764l37.172,11.572c3.62,1.164,6.4,4.073,7.37,7.758c3.168,12.671,8.21,24.824,14.933,36.008
	c1.939,3.232,2.069,7.24,0.323,10.667l-18.101,34.521l18.941,18.941l34.521-18.101c3.297-1.745,7.434-1.616,10.667,0.323
	c11.184,6.723,23.337,11.766,36.008,14.933c3.685,0.905,6.659,3.685,7.758,7.37l11.572,37.172h26.764l11.572-37.172
	c1.164-3.62,4.073-6.4,7.758-7.37c12.671-3.168,24.824-8.21,36.008-14.933c3.232-1.939,7.24-2.069,10.667-0.323l34.521,18.101
	l18.941-18.941l-18.101-34.521c-1.745-3.426-1.616-7.434,0.323-10.667c6.723-11.184,11.766-23.337,14.933-36.008
	c0.905-3.685,3.685-6.659,7.37-7.758l37.172-11.572v-26.764l-37.172-11.572C330.048,170.15,327.268,167.24,326.363,163.491z"/>
<path style="fill:#FFC10D;" d="M196.359,106.085c-49.713,0-90.182,40.404-90.182,90.182c0,19.846,6.594,38.141,17.455,53.075
	c7.499-20.945,27.539-35.943,51.071-35.943h43.572c23.402,0,43.378,14.933,50.941,35.685c10.796-14.933,17.325-33.164,17.325-52.945
	C286.541,146.554,246.072,106.085,196.359,106.085z M196.359,200.275c-22.044,0-39.952-17.907-39.952-39.952
	s17.907-39.951,39.952-39.951s39.952,17.907,39.952,39.951S218.404,200.275,196.359,200.275z"/>
<g>
	<path style="fill:#FFFFFF;" d="M217.628,235.184h-42.214c-18.23,0-33.099,14.739-33.164,32.97
		c15.063,11.378,33.875,18.23,54.174,18.23c20.428,0,39.24-6.853,54.368-18.36C250.533,249.923,235.794,235.184,217.628,235.184z"/>
	<path style="fill:#FFFFFF;" d="M196.359,142.093c-10.02,0-18.166,8.145-18.166,18.166s8.145,18.166,18.166,18.166
		s18.166-8.145,18.166-18.166C214.525,150.303,206.38,142.093,196.359,142.093z"/>
</g>
<g>
	<path style="fill:#194F82;" d="M196.359,120.307c-22.044,0-39.952,17.907-39.952,39.952s17.907,39.952,39.952,39.952
		s39.952-17.907,39.952-39.952S218.404,120.307,196.359,120.307z M196.359,178.424c-10.02,0-18.166-8.145-18.166-18.166
		s8.145-18.166,18.166-18.166s18.166,8.145,18.166,18.166S206.38,178.424,196.359,178.424z"/>
	<path style="fill:#194F82;" d="M384.998,164.525l-39.111-12.283c-3.103-10.602-7.37-20.881-12.671-30.513l19.006-36.331
		c2.263-4.267,1.422-9.438-1.939-12.735l-30.319-30.319c-3.426-3.426-8.598-4.202-12.735-1.939L270.897,59.41
		c-9.762-5.301-19.911-9.568-30.513-12.671L228.165,7.628C226.679,3.038,222.477,0,217.757,0h-42.731
		c-4.784,0-8.986,3.103-10.408,7.628l-12.283,39.111c-10.602,3.103-20.881,7.37-30.513,12.671L85.491,40.404
		c-4.267-2.263-9.438-1.422-12.735,1.939L42.436,72.663c-3.426,3.426-4.202,8.598-1.939,12.735l19.006,36.331
		c-5.301,9.762-9.568,19.911-12.671,30.513L7.721,164.461c-4.59,1.487-7.628,5.689-7.628,10.408V217.6
		c0,4.784,3.103,8.986,7.628,10.408l39.111,12.283c3.103,10.602,7.37,20.881,12.671,30.513l-19.006,36.331
		c-2.263,4.267-1.422,9.438,1.939,12.735l30.319,30.319c3.426,3.426,8.598,4.202,12.735,1.939l36.331-19.006
		c9.762,5.301,19.911,9.568,30.513,12.671l12.218,39.111c1.422,4.59,5.624,7.628,10.408,7.628h42.731
		c4.784,0,8.986-3.103,10.408-7.628l12.218-39.111c10.602-3.103,20.881-7.37,30.513-12.671l36.331,19.006
		c4.267,2.263,9.438,1.422,12.735-1.939l30.19-30.19c3.426-3.426,4.202-8.598,1.939-12.735l-19.006-36.331
		c5.301-9.762,9.568-19.911,12.671-30.513l39.111-12.218c4.59-1.422,7.628-5.624,7.628-10.408v-42.731
		C392.626,170.15,389.523,165.883,384.998,164.525z M370.84,209.649l-37.172,11.572c-3.62,1.164-6.4,4.073-7.37,7.758
		c-3.168,12.671-8.21,24.76-14.933,36.008c-1.939,3.232-2.069,7.24-0.323,10.667l18.101,34.521l-18.941,18.941l-34.521-18.101
		c-3.426-1.745-7.434-1.616-10.667,0.323c-11.184,6.723-23.337,11.766-36.008,14.933c-3.685,0.905-6.659,3.685-7.758,7.37
		l-11.572,37.172h-26.764l-11.572-37.172c-1.164-3.62-4.073-6.4-7.758-7.37c-12.671-3.168-24.824-8.21-36.008-14.933
		c-3.232-1.939-7.24-2.069-10.667-0.323l-34.521,18.101l-18.941-18.941l18.101-34.521c1.745-3.426,1.616-7.434-0.323-10.667
		c-6.723-11.184-11.766-23.337-14.933-36.008c-0.905-3.685-3.685-6.659-7.37-7.758l-37.172-11.572v-26.764l37.172-11.572
		c3.62-1.164,6.4-4.073,7.37-7.758c3.168-12.671,8.21-24.824,14.933-36.008c1.939-3.232,2.069-7.24,0.323-10.667L63.446,82.36
		l18.941-18.941l34.521,18.101c3.426,1.745,7.434,1.616,10.667-0.323c11.184-6.723,23.337-11.766,36.008-14.933
		c3.685-0.905,6.659-3.685,7.758-7.37l11.572-37.172h26.764l11.572,37.172c1.164,3.62,4.073,6.4,7.758,7.37
		c12.671,3.168,24.76,8.21,36.008,14.933c3.232,1.939,7.24,2.069,10.667,0.323l34.521-18.101l18.941,18.941l-18.101,34.521
		c-1.745,3.426-1.616,7.434,0.323,10.667c6.723,11.184,11.766,23.337,14.933,36.008c0.905,3.685,3.685,6.659,7.37,7.758
		l37.172,11.572V209.649z"/>
	<path style="fill:#194F82;" d="M196.359,84.299c-61.737,0-111.968,50.23-111.968,111.968s50.23,111.968,111.968,111.968
		s111.968-50.23,111.968-111.968S258.097,84.299,196.359,84.299z M196.295,286.384c-20.234,0.065-38.917-6.788-54.109-18.166
		c0.065-18.23,14.933-32.97,33.164-32.97h42.214c18.166,0,32.905,14.61,33.164,32.776
		C235.535,279.467,216.788,286.384,196.295,286.384z M269.216,249.212c-7.564-20.881-27.539-35.749-50.941-35.749h-43.572
		c-23.596,0-43.507,14.998-51.071,35.943c-10.925-14.933-17.455-33.228-17.455-53.075c0-49.713,40.404-90.182,90.182-90.182
		s90.182,40.404,90.182,90.117C286.541,216.049,280.077,234.279,269.216,249.212z"/>
</g>
<g>
</g>
<g>
</g>
<g>
</g>
<g>
</g>
<g>
</g>
<g>
</g>
<g>
</g>
<g>
</g>
<g>
</g>
<g>
</g>
<g>
</g>
<g>
</g>
<g>
</g>
<g>
</g>
<g>
</g>
</svg>
